<svg version="1.0" xmlns="http://www.w3.org/2000/svg"
 width="272.000000pt" height="180.000000pt" viewBox="73 42 120.000000 186.000000"
 preserveAspectRatio="xMidYMid meet">

<g transform="translate(0.000000,267.000000) scale(0.100000,-0.100000)"
fill="#FFF" stroke="none">
<path d="M630 1340 l0 -810 410 0 c334 0 425 3 488 16 227 46 400 217 448 444
10 47 14 146 14 350 0 204 -4 303 -14 350 -48 227 -221 398 -448 444 -63 13
-154 16 -488 16 l-410 0 0 -810z m865 421 c157 -72 184 -287 47 -386 -22 -16
-41 -32 -41 -35 0 -3 19 -18 41 -35 137 -99 110 -314 -47 -386 -35 -16 -68
-19 -272 -19 l-233 0 0 440 0 440 233 0 c204 0 237 -3 272 -19z"/>
</g>
</svg>
